<?xml version="1.0" encoding="UTF-8" standalone="no"?>
<!-- Created with Inkscape (http://www.inkscape.org/) -->

<svg
   width="160.04231mm"
   height="112.95216mm"
   viewBox="0 0 160.04231 112.95216"
   version="1.1"
   id="svg5"
   inkscape:version="1.1.1 (3bf5ae0d25, 2021-09-20)"
   sodipodi:docname="logo.svg"
   xmlns:inkscape="http://www.inkscape.org/namespaces/inkscape"
   xmlns:sodipodi="http://sodipodi.sourceforge.net/DTD/sodipodi-0.dtd"
   xmlns="http://www.w3.org/2000/svg"
   xmlns:svg="http://www.w3.org/2000/svg">
  <sodipodi:namedview
     id="namedview7"
     pagecolor="#ffffff"
     bordercolor="#666666"
     borderopacity="1.0"
     inkscape:pageshadow="2"
     inkscape:pageopacity="0.0"
     inkscape:pagecheckerboard="0"
     inkscape:document-units="mm"
     showgrid="false"
     inkscape:zoom="1.3438909"
     inkscape:cx="295.03883"
     inkscape:cy="459.85875"
     inkscape:window-width="2558"
     inkscape:window-height="1360"
     inkscape:window-x="1273"
     inkscape:window-y="0"
     inkscape:window-maximized="0"
     inkscape:current-layer="text40256-2" />
  <defs
     id="defs2">
    <rect
       x="119.80139"
       y="1084.9095"
       width="548.40759"
       height="90.781181"
       id="rect30586" />
    <rect
       x="112.36031"
       y="1058.8657"
       width="622.81842"
       height="72.178474"
       id="rect24968" />
    <rect
       x="135.7253"
       y="392.88904"
       width="772.38416"
       height="475.03857"
       id="rect1779" />
  </defs>
  <g
     inkscape:label="Layer 1"
     inkscape:groupmode="layer"
     id="layer1"
     transform="translate(-34.978842)"
     style="display:inline">
    <text
       xml:space="preserve"
       style="font-size:7.99999px;line-height:1.25;font-family:'Bauhaus 93';-inkscape-font-specification:'Bauhaus 93, ';stroke-width:0.264583"
       x="97.651772"
       y="183.49083"
       id="text15157"><tspan
         sodipodi:role="line"
         id="tspan15155"
         style="stroke-width:0.264583"
         x="97.651772"
         y="183.49083" /></text>
    <text
       xml:space="preserve"
       transform="scale(0.26458333)"
       id="text24966"
       style="font-size:30.2362px;line-height:1.25;font-family:'Bauhaus 93';-inkscape-font-specification:'Bauhaus 93, ';white-space:pre;shape-inside:url(#rect24968)" />
    <text
       xml:space="preserve"
       transform="scale(0.26458333)"
       id="text30584"
       style="font-style:normal;font-variant:normal;font-weight:normal;font-stretch:normal;font-size:30.2362px;line-height:1.25;font-family:'Mustica Pro';-inkscape-font-specification:'Mustica Pro';white-space:pre;shape-inside:url(#rect30586)" />
    <text
       xml:space="preserve"
       style="font-size:10px;line-height:1.05;font-family:'Bauhaus 93';-inkscape-font-specification:'Bauhaus 93, ';letter-spacing:8.99583px;display:none;stroke-width:0.264583"
       x="44.238842"
       y="111.47816"
       id="text40256"><tspan
         sodipodi:role="line"
         id="tspan40254"
         style="font-style:normal;font-variant:normal;font-weight:normal;font-stretch:normal;font-size:10px;font-family:'Mustica Pro';-inkscape-font-specification:'Mustica Pro';stroke-width:0.264583"
         x="0"
         y="0"
         dy="0">PATHFINDER</tspan></text>
    <text
       xml:space="preserve"
       style="font-size:7.99999px;line-height:1.25;font-family:'Bauhaus 93';-inkscape-font-specification:'Bauhaus 93, ';stroke-width:0.264583"
       x="8.8595352"
       y="195.89418"
       id="text55038"><tspan
         sodipodi:role="line"
         id="tspan55036"
         style="stroke-width:0.264583"
         x="8.8595352"
         y="195.89418" /></text>
    <text
       xml:space="preserve"
       style="font-size:7.99999px;line-height:1.25;font-family:'Bauhaus 93';-inkscape-font-specification:'Bauhaus 93, ';stroke-width:0.264583"
       x="100.40807"
       y="297.48352"
       id="text61156"><tspan
         sodipodi:role="line"
         id="tspan61154"
         style="stroke-width:0.264583"
         x="100.40807"
         y="297.48352" /></text>
    <path
       id="path16905-7-1-9-4-6"
       style="display:inline;fill:#000000;fill-opacity:1;fill-rule:evenodd;stroke:none;stroke-width:11.6666;stroke-linecap:round;stroke-linejoin:round;stroke-miterlimit:8.5;stroke-dasharray:none;stroke-dashoffset:0;stroke-opacity:1;paint-order:markers stroke fill"
       d="m 150.00015,21.47621 a 34.999998,34.999998 0 0 0 -14.40738,3.125908 37.949999,37.949999 0 0 1 8.48113,7.597985 25,25 0 0 1 5.92625,-0.723987 25,25 0 0 1 24.99951,25.000023 25,25 0 0 1 -23.78821,24.968504 l 8.62066,8.620662 A 34.999998,34.999998 0 0 0 185.00009,56.476139 34.999998,34.999998 0 0 0 150.00015,21.47621 Z m -14.40067,66.84243 a 37.949999,37.949999 0 0 1 -0.03,0.02119 34.999998,34.999998 0 0 0 0.0873,0.03617 z" />
    <circle
       style="display:inline;fill:none;fill-rule:evenodd;stroke:#ff00cc;stroke-width:10;stroke-linecap:round;stroke-linejoin:round;stroke-miterlimit:8.5;stroke-dasharray:none;stroke-dashoffset:0;stroke-opacity:1;paint-order:markers stroke fill"
       id="path16905-7-38"
       cx="114.9999"
       cy="56.476082"
       r="30" />
    <path
       style="font-variation-settings:normal;display:inline;fill:none;fill-opacity:1;stroke:#ff00cc;stroke-width:10;stroke-linecap:butt;stroke-linejoin:miter;stroke-miterlimit:8.5;stroke-dasharray:none;stroke-dashoffset:0;stroke-opacity:1;paint-order:normal;stop-color:#000000"
       d="m 134.99991,76.476 20,20"
       id="path17100-7"
       sodipodi:nodetypes="cc" />
    <path
       id="path892-4"
       style="display:inline;fill:#000000;fill-opacity:1;fill-rule:evenodd;stroke:none;stroke-width:17.1084;stroke-linecap:square;stroke-linejoin:round;stroke-miterlimit:7;paint-order:markers stroke fill"
       d="m 79.999833,21.47607 a 34.999998,34.999998 0 0 0 -34.99993,34.99993 34.999998,34.999998 0 0 0 34.99993,34.99993 34.999998,34.999998 0 0 0 14.43065,-3.136243 37.949999,37.949999 0 0 1 -8.48682,-7.592301 25,25 0 0 1 -5.94383,0.728638 A 25,25 0 0 1 54.99981,56.476 25,25 0 0 1 79.999833,31.475976 a 25,25 0 0 1 5.95106,0.720368 37.949999,37.949999 0 0 1 8.49767,-7.595402 34.999998,34.999998 0 0 0 -14.44873,-3.124872 z" />
    <g
       aria-label="PATHFINDER"
       id="text40256-2"
       style="font-size:10px;line-height:1.05;font-family:'Bauhaus 93';-inkscape-font-specification:'Bauhaus 93, ';letter-spacing:8.99583px;stroke-width:0.264583">
      <path
         d="m 44.978842,111.47816 h 1.18 v -2.26 h 1.82 c 1.33,0 2.31,-1.05 2.31,-2.47 0,-1.42 -0.98,-2.47 -2.31,-2.47 h -3 z m 2.85,-6.02 c 0.79,0 1.29,0.5 1.29,1.29 0,0.78 -0.51,1.29 -1.3,1.29 h -1.66 v -2.58 z"
         style="font-family:'Mustica Pro';-inkscape-font-specification:'Mustica Pro'"
         id="path1003" />
      <path
         d="m 60.194653,111.47816 0.57,-1.49 h 3.09 l 0.57,1.49 h 1.27 l -2.74,-7.2 h -1.29 l -2.74,7.2 z m 0.99,-2.67 1.13,-2.95 1.12,2.95 z"
         style="font-family:'Mustica Pro';-inkscape-font-specification:'Mustica Pro'"
         id="path1005" />
      <path
         d="m 76.400453,105.45816 v 6.02 h 1.18 v -6.02 h 2.25 v -1.18 h -5.69 v 1.18 z"
         style="font-family:'Mustica Pro';-inkscape-font-specification:'Mustica Pro'"
         id="path1007" />
      <path
         d="m 90.916258,111.47816 v -3.15 h 3.31 v 3.15 h 1.18 v -7.2 h -1.18 v 2.87 h -3.31 v -2.87 h -1.18 v 7.2 z"
         style="font-family:'Mustica Pro';-inkscape-font-specification:'Mustica Pro'"
         id="path1009" />
      <path
         d="m 107.05208,111.47816 v -3.15 h 3.08 v -1.18 h -3.08 v -1.69 h 3.48 v -1.18 h -4.66 v 7.2 z"
         style="font-family:'Mustica Pro';-inkscape-font-specification:'Mustica Pro'"
         id="path1011" />
      <path
         d="m 121.70791,104.27816 h -1.18 v 7.2 h 1.18 z"
         style="font-family:'Mustica Pro';-inkscape-font-specification:'Mustica Pro'"
         id="path1013" />
      <path
         d="m 132.18372,111.47816 h 1.18 v -4.96 l 3.39,4.96 h 1.1 v -7.2 h -1.18 v 4.96 l -3.4,-4.96 h -1.09 z"
         style="font-family:'Mustica Pro';-inkscape-font-specification:'Mustica Pro'"
         id="path1015" />
      <path
         d="m 148.31954,111.47816 h 2.77 c 2.03,0 3.48,-1.5 3.48,-3.6 0,-2.1 -1.46,-3.6 -3.48,-3.6 h -2.77 z m 1.18,-6.02 h 1.59 c 1.37,0 2.3,0.98 2.3,2.42 0,1.44 -0.93,2.42 -2.3,2.42 h -1.59 z"
         style="font-family:'Mustica Pro';-inkscape-font-specification:'Mustica Pro'"
         id="path1017" />
      <path
         d="m 169.28534,111.47816 v -1.18 h -3.48 v -1.97 h 3.08 v -1.18 h -3.08 v -1.69 h 3.48 v -1.18 h -4.66 v 7.2 z"
         style="font-family:'Mustica Pro';-inkscape-font-specification:'Mustica Pro'"
         id="path1019" />
      <path
         d="m 179.38116,111.47816 h 1.18 v -2.26 h 1.9 c 0.07,0 0.14,0 0.21,-0.01 l 1.05,2.27 h 1.3 l -1.24,-2.68 c 0.65,-0.41 1.07,-1.16 1.07,-2.05 0,-1.42 -0.98,-2.47 -2.31,-2.47 h -3.16 z m 1.18,-6.02 h 1.83 c 0.79,0 1.29,0.5 1.29,1.29 0,0.78 -0.51,1.29 -1.3,1.29 h -1.82 z"
         style="font-family:'Mustica Pro';-inkscape-font-specification:'Mustica Pro'"
         id="path1021" />
    </g>
  </g>
</svg>
