<?xml version="1.0" encoding="UTF-8" standalone="no"?>
<!-- Created with Inkscape (http://www.inkscape.org/) -->

<svg
   width="160.04231mm"
   height="112.95216mm"
   viewBox="0 0 160.04231 112.95216"
   version="1.1"
   id="svg5"
   inkscape:version="1.1.1 (3bf5ae0d25, 2021-09-20)"
   sodipodi:docname="logo_inkscape.svg"
   xmlns:inkscape="http://www.inkscape.org/namespaces/inkscape"
   xmlns:sodipodi="http://sodipodi.sourceforge.net/DTD/sodipodi-0.dtd"
   xmlns="http://www.w3.org/2000/svg"
   xmlns:svg="http://www.w3.org/2000/svg">
  <sodipodi:namedview
     id="namedview7"
     pagecolor="#ffffff"
     bordercolor="#666666"
     borderopacity="1.0"
     inkscape:pageshadow="2"
     inkscape:pageopacity="0.0"
     inkscape:pagecheckerboard="0"
     inkscape:document-units="mm"
     showgrid="false"
     inkscape:zoom="0.93325758"
     inkscape:cx="231.98311"
     inkscape:cy="157.51278"
     inkscape:window-width="2558"
     inkscape:window-height="1360"
     inkscape:window-x="1273"
     inkscape:window-y="0"
     inkscape:window-maximized="0"
     inkscape:current-layer="layer1" />
  <defs
     id="defs2">
    <rect
       x="119.80139"
       y="1084.9095"
       width="548.40759"
       height="90.781181"
       id="rect30586" />
    <rect
       x="112.36031"
       y="1058.8657"
       width="622.81842"
       height="72.178474"
       id="rect24968" />
    <rect
       x="135.7253"
       y="392.88904"
       width="772.38416"
       height="475.03857"
       id="rect1779" />
  </defs>
  <g
     inkscape:label="Layer 1"
     inkscape:groupmode="layer"
     id="layer1"
     transform="translate(-34.978842)"
     style="display:inline">
    <text
       xml:space="preserve"
       style="font-size:7.99999px;line-height:1.25;font-family:'Bauhaus 93';-inkscape-font-specification:'Bauhaus 93, ';stroke-width:0.264583"
       x="97.651772"
       y="183.49083"
       id="text15157"><tspan
         sodipodi:role="line"
         id="tspan15155"
         style="stroke-width:0.264583"
         x="97.651772"
         y="183.49083" /></text>
    <text
       xml:space="preserve"
       transform="scale(0.26458333)"
       id="text24966"
       style="font-size:30.2362px;line-height:1.25;font-family:'Bauhaus 93';-inkscape-font-specification:'Bauhaus 93, ';white-space:pre;shape-inside:url(#rect24968)" />
    <text
       xml:space="preserve"
       transform="scale(0.26458333)"
       id="text30584"
       style="font-style:normal;font-variant:normal;font-weight:normal;font-stretch:normal;font-size:30.2362px;line-height:1.25;font-family:'Mustica Pro';-inkscape-font-specification:'Mustica Pro';white-space:pre;shape-inside:url(#rect30586)" />
    <text
       xml:space="preserve"
       style="font-size:10px;line-height:1.05;font-family:'Bauhaus 93';-inkscape-font-specification:'Bauhaus 93, ';letter-spacing:8.99583px;display:none;stroke-width:0.264583"
       x="44.238842"
       y="111.47816"
       id="text40256"><tspan
         sodipodi:role="line"
         id="tspan40254"
         style="font-style:normal;font-variant:normal;font-weight:normal;font-stretch:normal;font-size:10px;font-family:'Mustica Pro';-inkscape-font-specification:'Mustica Pro';stroke-width:0.264583"
         x="0"
         y="0"
         dy="0">PATHFINDER</tspan></text>
    <text
       xml:space="preserve"
       style="font-size:7.99999px;line-height:1.25;font-family:'Bauhaus 93';-inkscape-font-specification:'Bauhaus 93, ';stroke-width:0.264583"
       x="8.8595352"
       y="195.89418"
       id="text55038"><tspan
         sodipodi:role="line"
         id="tspan55036"
         style="stroke-width:0.264583"
         x="8.8595352"
         y="195.89418" /></text>
    <text
       xml:space="preserve"
       style="font-size:7.99999px;line-height:1.25;font-family:'Bauhaus 93';-inkscape-font-specification:'Bauhaus 93, ';stroke-width:0.264583"
       x="100.40807"
       y="297.48352"
       id="text61156"><tspan
         sodipodi:role="line"
         id="tspan61154"
         style="stroke-width:0.264583"
         x="100.40807"
         y="297.48352" /></text>
    <path
       id="path16905-7-1-9-4-6"
       style="display:inline;fill:#000000;fill-opacity:1;fill-rule:evenodd;stroke:none;stroke-width:11.6666;stroke-linecap:round;stroke-linejoin:round;stroke-miterlimit:8.5;stroke-dasharray:none;stroke-dashoffset:0;stroke-opacity:1;paint-order:markers stroke fill"
       d="m 150.00015,21.47621 a 34.999998,34.999998 0 0 0 -14.40738,3.125908 37.949999,37.949999 0 0 1 8.48113,7.597985 25,25 0 0 1 5.92625,-0.723987 25,25 0 0 1 24.99951,25.000023 25,25 0 0 1 -23.78821,24.968504 l 8.62066,8.620662 A 34.999998,34.999998 0 0 0 185.00009,56.476139 34.999998,34.999998 0 0 0 150.00015,21.47621 Z m -14.40067,66.84243 a 37.949999,37.949999 0 0 1 -0.03,0.02119 34.999998,34.999998 0 0 0 0.0873,0.03617 z" />
    <circle
       style="display:inline;fill:none;fill-rule:evenodd;stroke:#ff00cc;stroke-width:10;stroke-linecap:round;stroke-linejoin:round;stroke-miterlimit:8.5;stroke-dasharray:none;stroke-dashoffset:0;stroke-opacity:1;paint-order:markers stroke fill"
       id="path16905-7-38"
       cx="114.9999"
       cy="56.476082"
       r="30" />
    <path
       style="font-variation-settings:normal;display:inline;fill:none;fill-opacity:1;stroke:#ff00cc;stroke-width:10;stroke-linecap:butt;stroke-linejoin:miter;stroke-miterlimit:8.5;stroke-dasharray:none;stroke-dashoffset:0;stroke-opacity:1;paint-order:normal;stop-color:#000000"
       d="m 134.99991,76.476 20,20"
       id="path17100-7"
       sodipodi:nodetypes="cc" />
    <path
       id="path892-4"
       style="display:inline;fill:#000000;fill-opacity:1;fill-rule:evenodd;stroke:none;stroke-width:17.1084;stroke-linecap:square;stroke-linejoin:round;stroke-miterlimit:7;paint-order:markers stroke fill"
       d="m 79.999833,21.47607 a 34.999998,34.999998 0 0 0 -34.99993,34.99993 34.999998,34.999998 0 0 0 34.99993,34.99993 34.999998,34.999998 0 0 0 14.43065,-3.136243 37.949999,37.949999 0 0 1 -8.48682,-7.592301 25,25 0 0 1 -5.94383,0.728638 A 25,25 0 0 1 54.99981,56.476 25,25 0 0 1 79.999833,31.475976 a 25,25 0 0 1 5.95106,0.720368 37.949999,37.949999 0 0 1 8.49767,-7.595402 34.999998,34.999998 0 0 0 -14.44873,-3.124872 z" />
    <text
       xml:space="preserve"
       style="font-size:10px;line-height:1.05;font-family:'Bauhaus 93';-inkscape-font-specification:'Bauhaus 93, ';letter-spacing:8.99583px;stroke-width:0.264583"
       x="44.238842"
       y="111.47816"
       id="text40256-2"><tspan
         sodipodi:role="line"
         id="tspan40254-1"
         style="font-style:normal;font-variant:normal;font-weight:normal;font-stretch:normal;font-size:10px;font-family:'Mustica Pro';-inkscape-font-specification:'Mustica Pro';stroke-width:0.264583"
         x="44.238842"
         y="111.47816"
         dy="0">PATHFINDER</tspan></text>
  </g>
</svg>
